<svg width="40" height="40" viewBox="0 0 40 40" fill="none" xmlns="http://www.w3.org/2000/svg">
<path d="M20 0C8.97221 0 0 8.97221 0 20C0 31.0278 8.97221 40 20 40C31.0278 40 40 31.0278 40 20C40 8.97221 31.0279 0 20 0ZM20 38.2609C9.93042 38.2609 1.73911 30.0696 1.73911 20C1.73911 9.93042 9.93042 1.73911 20 1.73911C30.0696 1.73911 38.2609 9.93042 38.2609 20C38.2609 30.0696 30.0696 38.2609 20 38.2609Z" fill="#C6C6C6"/>
<path d="M20 19.1304C13.7669 19.1304 8.69562 24.2017 8.69562 30.4348C8.69562 30.9148 9.08521 31.3044 9.56521 31.3044C10.0452 31.3044 10.4348 30.9147 10.4348 30.4347C10.4348 25.1599 14.7252 20.8695 20 20.8695C25.2748 20.8695 29.5652 25.1599 29.5652 30.4347C29.5652 30.9147 29.9548 31.3043 30.4348 31.3043C30.9148 31.3043 31.3044 30.9147 31.3044 30.4347C31.3044 24.2017 26.2331 19.1304 20 19.1304Z" fill="#C6C6C6"/>
<path d="M20 5.21753C16.6435 5.21753 13.913 7.94794 13.913 11.3045C13.913 14.6611 16.6434 17.3915 20 17.3915C23.3566 17.3915 26.087 14.661 26.087 11.3045C26.087 7.94802 23.3566 5.21753 20 5.21753ZM20 15.6523C17.6035 15.6523 15.6522 13.701 15.6522 11.3045C15.6522 8.90802 17.6035 6.95672 20 6.95672C22.3965 6.95672 24.3478 8.90802 24.3478 11.3045C24.3478 13.701 22.3966 15.6523 20 15.6523Z" fill="#C6C6C6"/>
</svg>
